HIERARCHY
ROOT Hip
{
  OFFSET 0.0 0.0 0.0
  CHANNELS 6 Xposition Yposition Zposition Xrotation Yrotation Zrotation
  JOINT LowerSpine
  {
    OFFSET 0.0 0.061367 -0.03653
    CHANNELS 3 Xrotation Yrotation Zrotation
    JOINT MiddleSpine
    {
      OFFSET 0.0 0.056002 0.002633
      CHANNELS 3 Xrotation Yrotation Zrotation
      JOINT Chest
      {
        OFFSET 0.0 0.069296 -0.013882
        CHANNELS 3 Xrotation Yrotation Zrotation
        JOINT Neck
        {
          OFFSET 0.0 0.156156 -0.002923
          CHANNELS 3 Xrotation Yrotation Zrotation
          JOINT Head
          {
            OFFSET 0.0 0.088183 0.023986
            CHANNELS 3 Xrotation Yrotation Zrotation
            End Site
            {
              OFFSET 1e-06 0.123215 0.003678
            }
          }
        }
        JOINT LClavicle
        {
          OFFSET 0.014189 0.150698 0.046467
          CHANNELS 3 Xrotation Yrotation Zrotation
          JOINT LShoulder
          {
            OFFSET 0.082893 0.021616 -0.034976
            CHANNELS 3 Xrotation Yrotation Zrotation
            JOINT LForearm
            {
              OFFSET 0.195645 -0.000695 -0.001695
              CHANNELS 3 Xrotation Yrotation Zrotation
              JOINT LHand
              {
                OFFSET 0.163209 0.000474 -0.000977
                CHANNELS 3 Xrotation Yrotation Zrotation
                End Site
                {
                  OFFSET 0.0 0.006864 0.0
                }
              }
            }
          }
        }
        JOINT RClavicle
        {
          OFFSET -0.014189 0.150698 0.046467
          CHANNELS 3 Xrotation Yrotation Zrotation
          JOINT RShoulder
          {
            OFFSET -0.082908 0.021619 -0.034982
            CHANNELS 3 Xrotation Yrotation Zrotation
            JOINT RForearm
            {
              OFFSET -0.195645 -0.000695 -0.001695
              CHANNELS 3 Xrotation Yrotation Zrotation
              JOINT RHand
              {
                OFFSET -0.163209 0.000474 -0.000977
                CHANNELS 3 Xrotation Yrotation Zrotation
                End Site
                {
                  OFFSET 0.0 0.006864 0.0
                }
              }
            }
          }
        }
      }
    }
  }
  JOINT RThigh
  {
    OFFSET -0.072558 0.02774 -0.005953
    CHANNELS 3 Xrotation Yrotation Zrotation
    JOINT RShin
    {
      OFFSET -0.005253 -0.285537 0.0
      CHANNELS 3 Xrotation Yrotation Zrotation
      JOINT RFoot
      {
        OFFSET 0.0 -0.28038 0.0
        CHANNELS 3 Xrotation Yrotation Zrotation
        JOINT RToe
        {
          OFFSET 0.0 -0.030816 0.064441
          CHANNELS 3 Xrotation Yrotation Zrotation
          End Site
          {
            OFFSET 0.0 0.0 0.043231
          }
        }
      }
    }
  }
  JOINT LThigh
  {
    OFFSET 0.072557 0.027741 -0.005953
    CHANNELS 3 Xrotation Yrotation Zrotation
    JOINT LShin
    {
      OFFSET 0.005253 -0.285539 0.0
      CHANNELS 3 Xrotation Yrotation Zrotation
      JOINT LFoot
      {
        OFFSET 0.0 -0.28038 0.0
        CHANNELS 3 Xrotation Yrotation Zrotation
        JOINT LToe
        {
          OFFSET 0.0 -0.030816 0.064441
          CHANNELS 3 Xrotation Yrotation Zrotation
          End Site
          {
            OFFSET 0.0 0.0 0.043231
          }
        }
      }
    }
  }
}
MOTION
Frames: 7
Frame Time: 0.03333333333333333
-0.004056 0.552772 -0.083464 2.67455 -0.263383 1.075663 2.467137 0.123323 -0.989306 1.175452 1.580572 -0.91015 1.684444 2.806108 -2.751683 0.710138 0.307374 0.128336 0.007554 0.204013 0.004745 0.040942 -0.186619 -8.622786 11.116956 -29.569157 -49.71257 9.323235 -54.624649 2.844784 0.16236 0.176215 -0.186103 -0.574865 -1.111829 9.20967 -1.099824 42.235172 65.005043 7.359324 74.631592 -13.748328 0.372572 -0.547592 0.030854 -17.069479 0.643078 -1.808716 15.703307 -1.568882 4.405899 -3.563776 1.054255 0.516774 0.318846 0.69864 0.064965 -9.257596 10.005658 7.803046 12.269018 11.721396 -6.889969 -3.62072 1.178808 0.451301 0.008778 -0.080752 0.033885 
0.002724 0.5417 -0.07945 -1.79823 -2.758353 1.53624 2.809188 -0.021808 -0.057348 0.683251 1.854571 -0.239148 3.197895 5.150063 -4.266363 1.945963 0.472005 0.350721 0.035724 -0.18299 -0.042357 -1.322083 -1.574997 -8.269016 11.429971 -27.180124 -49.313679 10.197717 -56.540871 4.209708 0.098971 0.154746 -0.136894 -2.227379 0.462808 9.673347 0.98053 32.549305 60.617054 26.068647 86.891716 -31.176344 -0.121767 -0.182191 -0.014583 -12.183034 1.159501 -0.548879 14.757117 0.164969 2.231673 -4.015481 0.580259 0.123948 -0.004694 0.315575 0.079365 -2.099276 11.55608 6.568836 8.2061 9.540665 -5.836822 -4.272615 1.11141 0.790314 0.087675 -0.171162 -0.039615 
0.005575 0.548099 -0.068189 -1.796052 -1.65014 1.735015 2.489974 -0.07094 -0.076755 0.695907 1.927703 -0.092748 3.590341 5.214044 -3.484229 1.938044 0.4036 0.420477 0.029159 -0.172013 -0.037116 -1.690335 -1.896675 -8.573956 12.821389 -27.079243 -50.303173 11.238174 -53.205849 3.777396 0.062849 0.120523 -0.06152 -2.328187 1.502213 10.096072 2.509184 29.893064 59.693531 -164.209076 88.122574 159.93515 -0.170033 -0.076941 -0.012102 -10.920746 -0.228285 -0.602359 13.141541 -0.118691 1.791883 -3.704425 0.674125 0.195024 -0.030762 0.191579 0.07586 -1.351413 11.703169 5.991784 6.207524 9.176188 -5.001946 -3.633195 0.861149 0.749503 0.067535 -0.136063 -0.029146 
0.006912 0.551126 -0.069605 -2.275171 -0.807763 1.978134 2.215247 -0.085511 -0.060291 0.879764 1.937813 -0.17599 4.725315 5.545236 -2.968544 1.877818 0.31924 0.394672 0.01547 -0.089881 -0.024042 -1.666345 -1.710006 -9.042097 12.416319 -26.062485 -50.750046 10.424822 -54.032539 2.983119 0.027554 0.067491 -0.007556 -2.105389 1.743949 10.371722 1.461794 28.920019 59.753044 -162.856171 85.610283 157.709763 -0.11925 -0.037003 -0.001017 -9.796617 -0.14084 -0.855899 12.655062 0.218693 1.64293 -3.913225 0.712059 0.298289 -0.007355 0.112921 0.047769 -0.367145 12.16956 5.284935 5.569312 9.394045 -4.417471 -3.450344 0.837049 0.699282 0.030081 -0.061445 -0.002309 
0.008801 0.553153 -0.067868 -2.611488 -0.198858 2.247251 2.017202 -0.071033 -0.008657 1.035937 1.955666 -0.268214 5.753538 5.769423 -2.817451 1.791097 0.266403 0.355605 0.00658 -0.046673 -0.014925 -1.635532 -1.618575 -9.365977 12.315364 -25.315794 -50.867836 9.975009 -55.707336 2.338337 0.007889 0.035845 0.021157 -1.97447 1.835293 10.529528 0.781896 28.51322 59.760719 -166.168579 83.581551 160.384079 -0.088182 -0.019237 0.005216 -9.11659 0.245353 -1.076885 12.486527 0.603291 1.470209 -4.232143 0.755042 0.349195 0.005679 0.074416 0.035426 0.238646 12.48665 4.983574 5.191064 9.609365 -4.193489 -3.323371 0.829458 0.666909 0.008657 -0.019443 0.010176 
0.01187 0.555765 -0.064816 -2.933664 0.189575 2.358814 1.823958 -0.029813 0.020828 1.210773 2.017707 -0.292276 6.746683 6.035409 -2.401023 1.656508 0.201753 0.302955 -0.000345 0.002568 -0.007611 -1.588485 -1.469994 -9.716143 12.119651 -24.909395 -51.279785 9.466628 -57.019505 1.809437 -0.005841 0.012246 0.040879 -1.858193 1.848946 10.599469 0.432137 27.355469 59.302567 -172.480377 79.907005 165.739822 -0.043415 -0.011757 0.011955 -8.052466 0.409403 -1.492607 12.212827 0.780887 1.495175 -4.704305 0.831986 0.407076 0.022528 0.04923 0.018928 1.055682 12.163241 4.474189 4.297703 9.263971 -3.650237 -3.256021 0.833454 0.633702 -0.005342 0.011372 0.022812 
0.016226 0.556863 -0.059263 -3.416411 0.405723 2.371843 1.667812 0.024471 0.01128 1.413126 2.097618 -0.262481 7.745513 6.453405 -1.570026 1.508865 0.133182 0.241461 -0.007049 0.066545 -0.001976 -1.502659 -1.23123 -10.149075 11.623499 -24.592272 -52.003666 8.568726 -57.794228 1.25397 -0.017188 -0.00811 0.055826 -1.700481 1.750607 10.627512 -0.211055 25.558815 58.671864 -177.29567 75.576805 169.067276 0.016737 -0.011364 0.019855 -6.448111 0.403205 -1.965641 11.812916 0.779111 1.679419 -5.333783 0.918596 0.467664 0.043079 0.036736 -0.0 2.295576 11.235823 3.703981 2.955919 8.340118 -2.714944 -3.242117 0.877287 0.607634 -0.017273 0.04027 0.037551 
